/* XPM */
static char * E:\Users\Steve\Desktop\enemy_xpm[] = {
"64 256 12 1",
" 	c None",
".	c #4A2655",
"+	c #49598C",
"@	c #88A2C3",
"#	c #45234F",
"$	c #3A1E3A",
"%	c #16B030",
"&	c #F98815",
"*	c #00C1F9",
"=	c #7C2C39",
"-	c #522A62",
";	c #D31E35",
"                               ..                               ",
"                               ..                               ",
"                             ..++..                             ",
"                             ..++..                             ",
"                             @@++++..                           ",
"                             @@++++..                           ",
"                           ##@@++++..                           ",
"                           ##@@++++..                           ",
"                           $$$$++++....                         ",
"                           $$$$++++....                         ",
"                         $$$$%%$$++......                       ",
"                         $$$$%%$$++......                       ",
"                       $$$$$$$$$$++........                     ",
"                       $$$$$$$$$$++........                     ",
"                       $$&&$$$$##++........                     ",
"                       $$&&$$$$##++........                     ",
"                     $$$$$$$$**##++..........                   ",
"                     $$$$$$$$**##++..........                   ",
"                     $$$$$$$$$$++++..........                   ",
"                     $$$$$$$$$$++++..........                   ",
"                   @@@@++@@@@++++............                   ",
"                   @@@@++@@@@++++............                   ",
"                   @@@@$$@@@@@@++........$$....                 ",
"                   @@@@$$@@@@@@++........$$....                 ",
"                 @@@@@@$$$$@@@@++......$$$$....                 ",
"                 @@@@@@$$$$@@@@++......$$$$....                 ",
"                 @@@@....==----++......==........               ",
"                 @@@@....==----++......==........               ",
"               @@@@......======....======..........             ",
"               @@@@......======....======..........             ",
"             $$@@@@++....;;============;;..........             ",
"             $$@@@@++....;;============;;..........             ",
"             $$@@++++++..;;====;;;;====;;..........             ",
"             $$@@++++++..;;====;;;;====;;..........             ",
"           $$$$$$++++++....;;========;;..............           ",
"           $$$$$$++++++....;;========;;..............           ",
"           $$@@$$$$++++++..==;;;;;;;;==..............           ",
"           $$@@$$$$++++++..==;;;;;;;;==..............           ",
"         ..++++@@$$$$++++++..........................$$         ",
"         ..++++@@$$$$++++++..........................$$         ",
"         ++++++..$$..$$++++++++++..................$$$$         ",
"         ++++++..$$..$$++++++++++..................$$$$         ",
"       ..++++..$$$$++@@$$++++++++................$$$$++..       ",
"       ..++++..$$$$++@@$$++++++++................$$$$++..       ",
"       ..++++++..++++++@@$$++++++++..........$$$$++++....       ",
"       ..++++++..++++++@@$$++++++++..........$$$$++++....       ",
"       ......++..++++####$$$$$$$$$$$$$$$$$$$$$$++........       ",
"       ......++..++++####$$$$$$$$$$$$$$$$$$$$$$++........       ",
"         ....++..++++++++++@@@@@@@@++++++++$$$$..........       ",
"         ....++..++++++++++@@@@@@@@++++++++$$$$..........       ",
"             ....++++++++++++++++............$$........         ",
"             ....++++++++++++++++............$$........         ",
"               ........++++++++++++..........$$$$....           ",
"               ........++++++++++++..........$$$$....           ",
"                 ..........++++..............$$$$..             ",
"                 ..........++++..............$$$$..             ",
"                     ........................                   ",
"                     ........................                   ",
"                         ..............                         ",
"                         ..............                         ",
"                                                                ",
"                                                                ",
"                                                                ",
"                                                                ",
"                                                                ",
"                                                                ",
"                                                                ",
"                                                                ",
"                                                                ",
"                                                                ",
"                                                                ",
"                                                                ",
"                                                                ",
"                                                                ",
"                                                                ",
"                                                                ",
"                                                                ",
"                                                                ",
"                                                                ",
"                                                                ",
"                                                                ",
"                                                                ",
"                                                                ",
"                                                                ",
"                                                                ",
"                                                                ",
"                                                                ",
"                                                                ",
"                                                                ",
"                                                                ",
"                                                                ",
"                                                                ",
"                                                                ",
"                                                                ",
"                                                                ",
"                                                                ",
"                                                                ",
"                                                                ",
"                                                                ",
"                                                                ",
"                                                                ",
"                                                                ",
"                                                                ",
"                                                                ",
"                                                                ",
"                                                                ",
"                                                                ",
"                                                                ",
"                                                                ",
"                                                                ",
"                                                                ",
"                                                                ",
"                                                                ",
"                                                                ",
"                                                                ",
"                                                                ",
"                                                                ",
"                                                                ",
"                                                                ",
"                                                                ",
"                                                                ",
"                                                                ",
"                                                                ",
"                                                                ",
"                                                                ",
"                                                                ",
"                                                                ",
"                                                                ",
"                                                                ",
"                                                                ",
"                                                                ",
"                                                                ",
"                                                                ",
"                                                                ",
"                                                                ",
"                                                                ",
"                                                                ",
"                                                                ",
"                                                                ",
"                                                                ",
"                                                                ",
"                                                                ",
"                                                                ",
"                                                                ",
"                                                                ",
"                                                                ",
"                                                                ",
"                                                                ",
"                                                                ",
"                                                                ",
"                                                                ",
"                                                                ",
"                                                                ",
"                                                                ",
"                                                                ",
"                                                                ",
"                                                                ",
"                                                                ",
"                                                                ",
"                                                                ",
"                                                                ",
"                                                                ",
"                                                                ",
"                                                                ",
"                                                                ",
"                                                                ",
"                                                                ",
"                                                                ",
"                                                                ",
"                                                                ",
"                                                                ",
"                                                                ",
"                                                                ",
"                                                                ",
"                                                                ",
"                                                                ",
"                                                                ",
"                                                                ",
"                                                                ",
"                                                                ",
"                                                                ",
"                                                                ",
"                                                                ",
"                                                                ",
"                                                                ",
"                                                                ",
"                                                                ",
"                                                                ",
"                                                                ",
"                                                                ",
"                                                                ",
"                                                                ",
"                                                                ",
"                                                                ",
"                                                                ",
"                                                                ",
"                                                                ",
"                                                                ",
"                                                                ",
"                                                                ",
"                                                                ",
"                                                                ",
"                                                                ",
"                                                                ",
"                                                                ",
"                                                                ",
"                                                                ",
"                                                                ",
"                                                                ",
"                                                                ",
"                                                                ",
"                                                                ",
"                                                                ",
"                                                                ",
"                                                                ",
"                                                                ",
"                                                                ",
"                                                                ",
"                                                                ",
"                                                                ",
"                                                                ",
"                                                                ",
"                                                                ",
"                                                                ",
"                                                                ",
"                                                                ",
"                                                                ",
"                                                                ",
"                                                                ",
"                                                                ",
"                                                                ",
"                                                                ",
"                                                                ",
"                                                                ",
"                                                                ",
"                                                                ",
"                                                                ",
"                                                                ",
"                                                                ",
"                                                                ",
"                                                                ",
"                                                                ",
"                                                                ",
"                                                                ",
"                                                                ",
"                                                                ",
"                                                                ",
"                                                                ",
"                                                                ",
"                                                                ",
"                                                                ",
"                                                                ",
"                                                                ",
"                                                                ",
"                                                                ",
"                                                                "};
