/* XPM */
static char * E:\Users\Steve\Desktop\Sheet_xpm[] = {
"96 96 37 1",
" 	c None",
".	c #908090",
"+	c #685078",
"@	c #685474",
"#	c #B8B8A8",
"$	c #665478",
"%	c #0058C8",
"&	c #00B8F8",
"*	c #30E8F8",
"=	c #11A427",
"-	c #33D52B",
";	c #77E543",
">	c #6D8584",
",	c #A6BBBB",
"'	c #EEFFFE",
")	c #FFC90E",
"!	c #681088",
"~	c #AC341B",
"{	c #D62C38",
"]	c #DD536F",
"^	c #804818",
"/	c #D85010",
"(	c #F87810",
"_	c #782098",
":	c #4D0966",
"<	c #400850",
"[	c #381038",
"}	c #D68400",
"|	c #FFC606",
"1	c #FFE728",
"2	c #8808D0",
"3	c #A828E0",
"4	c #C860F0",
"5	c #90B0F8",
"6	c #C8C8F8",
"7	c #E0F8D8",
"8	c #C7D3D3",
".++++++++++++++++++++++++++++++..@@@@@@@@@@@@@@@@@@@@@@@@@@@@@@..++++++++++++++++++++++++++++++.",
"+##.+..####.########.####..+.##++##.$..####.########.####..$.##++##.+..####.########.####..+.##+",
"+#.++++..................++++.#++#.$$$$..................$$$$.#++#.++++..................++++.#+",
"+++%&&*+++....####....+++*&&%++++$$=--;$$$....####....$$$;--=$$++++>,,'+++....))))....+++',,>+++",
"+.+&*****&+++######+++&*****&+.++.$-;;;;;-$$$######$$$-;;;;;-$.++.+,''''',+++))))))+++,''''',+.+",
"+.+********&%++++++%&********+.++.$;;;;;;;;-=$$$$$$=-;;;;;;;;$.++.+'''''''',>++++++>,''''''''+.+",
"+#+&************************&+#++#$-;;;;;;;;;;;;;;;;;;;;;;;;-$#++#+,'''''''''''''''''''''''',+#+",
"+#.+************************+.#++#.$;;;;;;;;;;;;;;;;;;;;;;;;$.#++#.+''''''''''''''''''''''''+.#+",
"+#.+&**********************&+.#++#.$-;;;;;;;;;;;;;;;;;;;;;;-$.#++#.+,'''''''''''''''''''''',+.#+",
"+#.+&**********************&+.#++#.$-;;;;;;;;;;;;;;;;;;;;;;-$.#++#.+,'''''''''''''''''''''',+.#+",
"+#..+**********************+..#++#..$;;;;;;;;;;;;;;;;;;;;;;$..#++#..+''''''''''''''''''''''+..#+",
"+...+**********************+...++...$;;;;;;;;;;;;;;;;;;;;;;$...++...+''''''''''''''''''''''+...+",
"+#..+&********************&+..#++#..$-;;;;;;;;;;;;;;;;;;;;-$..#++#..+,'''''''''''''''''''',+..#+",
"+#..+%********************%+..#++#..$=;;;;;;;;;;;;;;;;;;;;=$..#++#..+>''''''''''''''''''''>+..#+",
"+#..#+********************+#..#++#..#$;;;;;;;;;;;;;;;;;;;;$#..#++#..)+''''''''''''''''''''+)..#+",
"+#.##+********************+##.#++#.##$;;;;;;;;;;;;;;;;;;;;$##.#++#.))+''''''''''''''''''''+)).#+",
"+#.##+********************+##.#++#.##$;;;;;;;;;;;;;;;;;;;;$##.#++#.))+''''''''''''''''''''+)).#+",
"+#..#+********************+#..#++#..#$;;;;;;;;;;;;;;;;;;;;$#..#++#..)+''''''''''''''''''''+)..#+",
"+#..+%********************%+..#++#..$=;;;;;;;;;;;;;;;;;;;;=$..#++#..+>''''''''''''''''''''>+..#+",
"+#..+&********************&+..#++#..$-;;;;;;;;;;;;;;;;;;;;-$..#++#..+,'''''''''''''''''''',+..#+",
"+...+**********************+...++...$;;;;;;;;;;;;;;;;;;;;;;$...++...+''''''''''''''''''''''+...+",
"+#..+**********************+..#++#..$;;;;;;;;;;;;;;;;;;;;;;$..#++#..+''''''''''''''''''''''+..#+",
"+#.+&**********************&+.#++#.$-;;;;;;;;;;;;;;;;;;;;;;-$.#++#.+,'''''''''''''''''''''',+.#+",
"+#.+&**********************&+.#++#.$-;;;;;;;;;;;;;;;;;;;;;;-$.#++#.+,'''''''''''''''''''''',+.#+",
"+#.+************************+.#++#.$;;;;;;;;;;;;;;;;;;;;;;;;$.#++#.+''''''''''''''''''''''''+.#+",
"+#+&************************&+#++#$-;;;;;;;;;;;;;;;;;;;;;;;;-$#++#+,'''''''''''''''''''''''',+#+",
"+.+********&%++++++%&********+.++.$;;;;;;;;-=$$$$$$=-;;;;;;;;$.++.+'''''''',>++++++>,''''''''+.+",
"+.+&*****&+++######+++&*****&+.++.$-;;;;;-$$$######$$$-;;;;;-$.++.+,''''',+++))))))+++,''''',+.+",
"+++%&&*+++....####....+++*&&%++++$$=--;$$$....####....$$$;--=$$++++>,,'+++....))))....+++',,>+++",
"+#.++++..................++++.#++#.$$$$..................$$$$.#++#.++++..................++++.#+",
"+##.+..####.########.####..+.##++##.$..####.########.####..$.##++##.+..####.########.####..+.##+",
".++++++++++++++++++++++++++++++..++++++++++++++++++++++++++++++..++++++++++++++++++++++++++++++.",
".@@@@@@@@@@@@@@@@@@@@@@@@@@@@@@..++++++++++++++++++++++++++++++..++++++++++++++++++++++++++++++.",
"@##.@..####.########.####..@.##@+##.+..####.########.####..+.##++##.+..##+#.#####+!#.####..+.##+",
"@#.@@@@..................@@@@.#@+#.++++..................++++.#++#.++++..!!+...+!!!+.....++++.#+",
"@@@~{{]@@@....####....@@@]{{~@@@+++^//(+++....####....+++(//^++++++__!:!!!!!!_!___!!!!!!!:!!!+++",
"@.@{]]]]]{@@@######@@@{]]]]]{@.@+.+/(((((/+++######+++/(((((/+.++.+_!::::!!!!___!!!!!!!:::::!+.+",
"@.@]]]]]]]]{~@@@@@@~{]]]]]]]]@.@+.+((((((((/^++++++^/((((((((+.++.+!::::::::!!!!!!!!!::::::::+.+",
"@#@{]]]]]]]]]]]]]]]]]]]]]]]]{@#@+#+/((((((((((((((((((((((((/+#++#+:::::::::::::::::::::::::!+#+",
"@#.@]]]]]]]]]]]]]]]]]]]]]]]]@.#@+#.+((((((((((((((((((((((((+.#++#.#<<:<:<<:<<:::::<<:<:<:<:+.#+",
"@#.@{]]]]]]]]]]]]]]]]]]]]]]{@.#@+#.+/((((((((((((((((((((((/+.#++##.[<:<<[[<<<<:<<<<<<[[<:<[+.#+",
"@#.@{]]]]]]]]]]]]]]]]]]]]]]{@.#@+#.+/((((((((((((((((((((((/+.#++#.:[<:[[[[[[<:<<:<[[[[[[:<[+.#+",
"@#..@]]]]]]]]]]]]]]]]]]]]]]@..#@+#..+((((((((((((((((((((((+..#++#.:[<[[[[[[[[[<<[[[[[[[[[<+..#+",
"@...@]]]]]]]]]]]]]]]]]]]]]]@...@+...+((((((((((((((((((((((+...++..:[[[[[[[[[[[[[[[[[[[[[[[+...+",
"@#..@{]]]]]]]]]]]]]]]]]]]]{@..#@+#..+/((((((((((((((((((((/+..#++#.:[[[[[[[[[[[[[[[[[[[[[[[+#.#+",
"@#..@~]]]]]]]]]]]]]]]]]]]]~@..#@+#..+^((((((((((((((((((((^+..#++#.+[[[[[[[[[[[[[[[[[[[[[[[+#.#+",
"@#..#@]]]]]]]]]]]]]]]]]]]]@#..#@+#..#+((((((((((((((((((((+#..#++#.+[[[[[[[[[[[[[[[[[[[[[[+#..#+",
"@#.##@]]]]]]]]]]]]]]]]]]]]@##.#@+#.##+((((((((((((((((((((+##.#++#.+[[[[[[[[[[[[[[[[[[[[[[.#..#+",
"@#.##@]]]]]]]]]]]]]]]]]]]]@##.#@+#.##+((((((((((((((((((((+##.#++#..+[[[[[[[[[[[[[[[[[[[[[+::.#+",
"@#..#@]]]]]]]]]]]]]]]]]]]]@#..#@+#..#+((((((((((((((((((((+#..#++#..+[[[[[[[[[[[[[[[[[[[[[[[:.#+",
"@#..@~]]]]]]]]]]]]]]]]]]]]~@..#@+#..+^((((((((((((((((((((^+..#++#..+[[[[[[[[[[[[[[[[[[[[[[[..#+",
"@#..@{]]]]]]]]]]]]]]]]]]]]{@..#@+#..+/((((((((((((((((((((/+..#++#..+[[[[[[[[[[[[[[[[[[[[[[[..#+",
"@...@]]]]]]]]]]]]]]]]]]]]]]@...@+...+((((((((((((((((((((((+...++....[[[[[[[[[[[[[[[[[[[[[[....+",
"@#..@]]]]]]]]]]]]]]]]]]]]]]@..#@+#..+((((((((((((((((((((((+..#++#.##[[[[[[[[[[[[[[[[[[[[[[+#.#+",
"@#.@{]]]]]]]]]]]]]]]]]]]]]]{@.#@+#.+/((((((((((((((((((((((/+.#++#..##+[[[[[[[[[[[[[[[[[[[[[+.#+",
"@#.@{]]]]]]]]]]]]]]]]]]]]]]{@.#@+#.+/((((((((((((((((((((((/+.#++#..++[[[[[[[[[[[[[[[[[[[[[[+.#+",
"@#.@]]]]]]]]]]]]]]]]]]]]]]]]@.#@+#.+((((((((((((((((((((((((+.#++#.+:[[[[[[[[[[[[[[[[[[[[[[[+.#+",
"@#@{]]]]]]]]]]]]]]]]]]]]]]]]{@#@+#+/((((((((((((((((((((((((/+#++#+:[[[[[[[[[[[[[[[[[[[[[[[[[+#+",
"@.@]]]]]]]]{~@@@@@@~{]]]]]]]]@.@+.+((((((((/^++++++^/((((((((+.++.+[[[[[[[[[.#[[[[[[[[[[[[[[:+.+",
"@.@{]]]]]{@@@######@@@{]]]]]{@.@+.+/(((((/+++######+++/(((((/+.++.+:[[[[[[:.###[[++[[[[[[[[::+.+",
"@@@~{{]@@@....####....@@@]{{~@@@+++^//(+++....####....+++(//^++++++:::[+++....#++..+++[:::[::+++",
"@#.@@@@..................@@@@.#@+#.++++..................++++.#++#.++++..................++++.#+",
"@##.@..####.########.####..@.##@+##.+..####.########.####..+.##++##.+..####.########.####..+.##+",
".@@@@@@@@@@@@@@@@@@@@@@@@@@@@@@..++++++++++++++++++++++++++++++..++++++++++++++++++++++++++++++.",
".++++++++++++++++++++++++++++++..++++++++++++++++++++++++++++++..++++++++++++++++++++++++++++++.",
"+##.+..####.########.####..+.##++##.+..####.########.####..+.##++##.+..####.########.####..+.##+",
"+#.++++..................++++.#++#.++++..................++++.#++#.++++..................++++.#+",
"+++}||1+++....####....+++1||}++++++2334+++....####....+++4332++++++>,,'+++....####....+++',,>+++",
"+.+|11111|+++######+++|11111|+.++.+3444443+++######+++3444443+.++.+,''''',+++######+++,''''',+.+",
"+.+11111111|}++++++}|11111111+.++.+4444444432++++++2344444444+.++.+'''''''',>++++++>,''''''''+.+",
"+#+|111111111111111111111111|+#++#+34444444444444444444444443+#++#+,'''''''''''''''''''''''',+#+",
"+#.+111111111111111111111111+.#++#.+444444444444444444444444+.#++#.+''''''''''5''55'''''''''+.#+",
"+#.+|1111111111111111111111|+.#++#.+344444444444444444444443+.#++#.+,'''''''''5'55''''''''',+.#+",
"+#.+|1111111111111111111111|+.#++#.+344444444444444444444443+.#++#.+,''''''''55555''''''''',+.#+",
"+#..+1111111111111111111111+..#++#..+4444444444444444444444+..#++#..+''''''''56556'5'''''''+..#+",
"+...+1111111111111111111111+...++...+4444444444444444444444+...++...+''''''''5757655'''''''+...+",
"+#..+|11111111111111111111|+..#++#..+3444444444444444444443+..#++#..+,''''''55766655'''''',+..#+",
"+#..+}11111111111111111111}+..#++#..+2444444444444444444442+..#++#..+>'''''5655677655'''''>+..#+",
"+#..#+11111111111111111111+#..#++#..#+44444444444444444444+#..#++#..#+'''''5675766765'''''+#..#+",
"+#.##+11111111111111111111+##.#++#.##+44444444444444444444+##.#++#.##+''''''576776565'''''+##.#+",
"+#.##+11111111111111111111+##.#++#.##+44444444444444444444+##.#++#.##+''''''567775575'''''+##.#+",
"+#..#+11111111111111111111+#..#++#..#+44444444444444444444+#..#++#..#+''''''567677675'''''+#..#+",
"+#..+}11111111111111111111}+..#++#..+2444444444444444444442+..#++#..+>''''''566677765'''''>+..#+",
"+#..+|11111111111111111111|+..#++#..+3444444444444444444443+..#++#..+,''''''565666655''''',+..#+",
"+...+1111111111111111111111+...++...+4444444444444444444444+...++...+''''''''5556655'''''''+...+",
"+#..+1111111111111111111111+..#++#..+4444444444444444444444+..#++#..+'''''''85566558'''''''+..#+",
"+#.+|1111111111111111111111|+.#++#.+344444444444444444444443+.#++#.+,'''''888855588888''''',+.#+",
"+#.+|1111111111111111111111|+.#++#.+344444444444444444444443+.#++#.+,'''''''88888888''''''',+.#+",
"+#.+111111111111111111111111+.#++#.+444444444444444444444444+.#++#.+''''''''''''''''''''''''+.#+",
"+#+|111111111111111111111111|+#++#+34444444444444444444444443+#++#+,'''''''''''''''''''''''',+#+",
"+.+11111111|}++++++}|11111111+.++.+4444444432++++++2344444444+.++.+'''''''',>++++++>,''''''''+.+",
"+.+|11111|+++######+++|11111|+.++.+3444443+++######+++3444443+.++.+,''''',+++######+++,''''',+.+",
"+++}||1+++....####....+++1||}++++++2334+++....####....+++4332++++++>,,'+++....####....+++',,>+++",
"+#.++++..................++++.#++#.++++..................++++.#++#.++++..................++++.#+",
"+##.+..####.########.####..+.##++##.+..####.########.####..+.##++##.+..####.########.####..+.##+",
".++++++++++++++++++++++++++++++..++++++++++++++++++++++++++++++..++++++++++++++++++++++++++++++."};
